#!OML:ASF G:\JayActor3\Patient Classification 1\Patient 1\Session 6\male.ASF
:FULLY-SPECIFIED
:DEGREES
574
root 29.4874 15.9494 -14.8265 -12.0809 -60.0533 10.5833
lowerback 5.16979 -3.93071 -5.22363
upperback -3.99461 -5.76574 -0.643327
thorax -6.63726 -2.62161 2.84261
lowerneck -6.41354 5.54894 7.376
upperneck 14.6181 7.54989 -6.59374
head 6.00529 3.57519 -2.73788
rclavicle -6.50026e-014 1.19271e-015
rhumerus -51.6514 0.975452 -66.2066
rradius 24.3966
rwrist 7.70476
rhand -12.7305 -5.6271
rfingers 7.12502
rthumb 13.3529 -35.1792
lclavicle -6.50026e-014 1.19271e-015
lhumerus -39.2684 -31.4005 87.4425
lradius 57.0111
lwrist 21.8721
lhand -3.83438 8.38444
lfingers 7.12502
lthumb 21.913 37.1635
rfemur -29.6393 3.43081 12.6684
rtibia 33.1913
rfoot -20.4237 -17.1535
rtoes -1.335
lfemur 28.0796 15.0448 -21.7502
ltibia -7.63333e-014
lfoot -8.70404 -0.368897
ltoes -11.2963
575
root 29.3624 15.9676 -14.7821 -11.8966 -59.8158 10.3705
lowerback 5.02684 -3.91458 -5.02078
upperback -4.05221 -5.71489 -0.550122
thorax -6.62886 -2.60357 2.8144
lowerneck -6.44319 5.48626 7.38285
upperneck 14.8073 7.46783 -6.58846
head 6.06382 3.53347 -2.74312
rclavicle -1.01877e-014 -6.75868e-015
rhumerus -51.508 1.0654 -66.2517
rradius 24.4726
rwrist 7.57759
rhand -12.8409 -5.61981
rfingers 7.12502
rthumb 13.2465 -35.1789
lclavicle -1.01877e-014 -6.75868e-015
lhumerus -39.8717 -31.426 88.2396
lradius 56.7857
lwrist 21.588
lhand -3.37704 8.53712
lfingers 7.12502
lthumb 22.3521 37.2641
rfemur -29.2866 3.28329 12.7792
rtibia 33.3735
rfoot -19.8057 -17.1311
rtoes -0.764057
lfemur 28.5252 14.9552 -21.3499
ltibia 5.40694e-014
lfoot -7.9191 -0.541511
ltoes -11.9982
576
root 29.238 15.9855 -14.7382 -11.706 -59.6314 10.1313
lowerback 4.90503 -3.89445 -4.79925
upperback -4.10077 -5.65782 -0.445482
thorax -6.6238 -2.583 2.78862
lowerneck -6.47786 5.43318 7.38704
upperneck 14.9591 7.39942 -6.59435
head 6.11284 3.49786 -2.75037
rclavicle 3.45885e-014 -3.97569e-015
rhumerus -51.3151 1.19503 -66.3298
rradius 24.5676
rwrist 7.45024
rhand -12.9093 -5.61231
rfingers 7.12502
rthumb 13.1806 -35.1757
lclavicle 3.45885e-014 -3.97569e-015
lhumerus -40.4825 -31.4023 89.0154
lradius 56.5322
lwrist 21.3732
lhand -3.04552 8.68782
lfingers 7.12502
lthumb 22.6703 37.3763
rfemur -28.908 3.13566 12.9468
rtibia 33.5624
rfoot -19.1291 -17.0574
rtoes -0.240491
lfemur 28.9806 14.9092 -20.9106
ltibia -6.36111e-014
lfoot -7.06719 -0.699884
ltoes -12.6732
577
root 29.1143 16.0034 -14.6951 -11.5206 -59.4836 9.88972
lowerback 4.80042 -3.8716 -4.5741
upperback -4.14436 -5.59776 -0.334949
thorax -6.62316 -2.56087 2.7679
lowerneck -6.51377 5.38674 7.38447
upperneck 15.0756 7.34044 -6.60502
head 6.15161 3.46656 -2.75733
rclavicle 3.21037e-014 1.59028e-015
rhumerus -51.0868 1.35282 -66.4361
rradius 24.6929
rwrist 7.33173
rhand -12.9347 -5.60382
rfingers 7.12502
rthumb 13.1561 -35.1688
lclavicle 3.21037e-014 1.59028e-015
lhumerus -41.1047 -31.3606 89.7755
lradius 56.2545
lwrist 21.2367
lhand -2.84395 8.81109
lfingers 7.12502
lthumb 22.8637 37.4758
rfemur -28.5154 3.00131 13.1489
rtibia 33.7583
rfoot -18.4651 -16.9832
rtoes 0.319829
lfemur 29.4313 14.894 -20.452
ltibia 8.26944e-014
lfoot -6.14673 -0.843129
ltoes -13.3263
578
root 28.9913 16.0219 -14.6533 -11.3416 -59.3542 9.65609
lowerback 4.70953 -3.84601 -4.35475
upperback -4.1877 -5.53595 -0.226739
thorax -6.62987 -2.53748 2.74891
lowerneck -6.53214 5.34082 7.38739
upperneck 15.1458 7.28227 -6.62437
head 6.1733 3.43623 -2.76845
rclavicle 9.24349e-015 -7.55382e-015
rhumerus -50.8508 1.5251 -66.5756
rradius 24.8661
rwrist 7.21633
rhand -12.9375 -5.60364
rfingers 7.12502
rthumb 13.1534 -35.1688
lclavicle 9.24349e-015 -7.55382e-015
lhumerus -41.7398 -31.3387 90.5249
lradius 55.9511
lwrist 21.1763
lhand -2.76214 8.89489
lfingers 7.12502
lthumb 22.9422 37.5498
rfemur -28.1176 2.8904 13.3695
rtibia 33.9526
rfoot -17.8607 -16.957
rtoes 0.957106
lfemur 29.8644 14.8929 -19.985
ltibia 4.13472e-014
lfoot -5.15196 -0.970978
ltoes -13.9425
579
root 28.8685 16.0409 -14.6127 -11.1687 -59.2464 9.41484
lowerback 4.63889 -3.81807 -4.1405
upperback -4.2187 -5.47188 -0.113315
thorax -6.63414 -2.51276 2.73898
lowerneck -6.57646 5.30032 7.36858
upperneck 15.1918 7.23126 -6.63842
head 6.1914 3.40842 -2.77312
rclavicle -3.70733e-014 -1.35174e-014
rhumerus -50.591 1.72393 -66.753
rradius 25.0874
rwrist 7.07842
rhand -12.9531 -5.60472
rfingers 7.12502
rthumb 13.1384 -35.1708
lclavicle -3.70733e-014 -1.35174e-014
lhumerus -42.3604 -31.3356 91.2575
lradius 55.617
lwrist 21.177
lhand -2.77802 8.93038
lfingers 7.12502
lthumb 22.927 37.5872
rfemur -27.6993 2.81983 13.6154
rtibia 34.132
rfoot -17.325 -16.9885
rtoes 1.69969
lfemur 30.2973 14.9061 -19.4949
ltibia -1.46306e-013
lfoot -4.08991 -1.08027
ltoes -14.4958
580
root 28.7455 16.0606 -14.5734 -10.9994 -59.1439 9.16257
lowerback 4.59135 -3.78693 -3.93202
upperback -4.24216 -5.40512 -0.000430745
thorax -6.64332 -2.48635 2.73289
lowerneck -6.62925 5.25967 7.34501
upperneck 15.2186 7.17841 -6.64474
head 6.20435 3.38015 -2.77453
rclavicle -6.95746e-015 -9.54166e-015
rhumerus -50.3314 1.94345 -66.9713
rradius 25.3625
rwrist 6.90914
rhand -12.9941 -5.61318
rfingers 7.12502
rthumb 13.0989 -35.1818
lclavicle -6.95746e-015 -9.54166e-015
lhumerus -42.9667 -31.3714 91.9776
lradius 55.2463
lwrist 21.2255
lhand -2.8623 8.93176
lfingers 7.12502
lthumb 22.8461 37.5986
rfemur -27.254 2.7846 13.8813
rtibia 34.2836
rfoot -16.8464 -17.0754
rtoes 2.47649
lfemur 30.7274 14.9179 -18.9844
ltibia 2.8625e-014
lfoot -2.94736 -1.17109
ltoes -14.955
581
root 28.6221 16.0808 -14.5355 -10.8383 -59.0375 8.89521
lowerback 4.5702 -3.75675 -3.73638
upperback -4.25444 -5.34124 0.117071
thorax -6.65393 -2.46062 2.74043
lowerneck -6.69701 5.22008 7.29953
upperneck 15.2333 7.12654 -6.63784
head 6.21487 3.35198 -2.76773
rclavicle 3.11098e-014 1.35174e-014
rhumerus -50.0688 2.20312 -67.2333
rradius 25.6893
rwrist 6.69232
rhand -13.0739 -5.62165
rfingers 7.12502
rthumb 13.022 -35.1952
lclavicle 3.11098e-014 1.35174e-014
lhumerus -43.5449 -31.4305 92.6814
lradius 54.8343
lwrist 21.3014
lhand -2.97805 8.90267
lfingers 7.12502
lthumb 22.735 37.5832
rfemur -26.7647 2.77952 14.1665
rtibia 34.3988
rfoot -16.4331 -17.1936
rtoes 3.24346
lfemur 31.16 14.9191 -18.4535
ltibia -9.54166e-015
lfoot -1.72226 -1.22914
ltoes -15.3418
582
root 28.498 16.1012 -14.4987 -10.695 -58.9144 8.61938
lowerback 4.57505 -3.7277 -3.55476
upperback -4.25631 -5.28073 0.23393
thorax -6.66702 -2.43584 2.75685
lowerneck -6.75613 5.17761 7.25921
upperneck 15.2324 7.06975 -6.629
head 6.21876 3.32223 -2.7618
rclavicle 1.13009e-013 1.11319e-014
rhumerus -49.8153 2.50553 -67.5419
rradius 26.0645
rwrist 6.42185
rhand -13.2027 -5.628
rfingers 7.12502
rthumb 12.8978 -35.2094
lclavicle 1.13009e-013 1.11319e-014
lhumerus -44.0923 -31.5129 93.3667
lradius 54.3813
lwrist 21.3835
lhand -3.08476 8.86776
lfingers 7.12502
lthumb 22.6326 37.5608
rfemur -26.2184 2.78742 14.4629
rtibia 34.4734
rfoot -16.0974 -17.3151
rtoes 3.97595
lfemur 31.5979 14.8991 -17.911
ltibia 5.40694e-014
lfoot -0.412774 -1.24202
ltoes -15.612
